<svg width="60" height="59" viewBox="0 0 60 59" fill="none" xmlns="http://www.w3.org/2000/svg">
<path fill-rule="evenodd" clip-rule="evenodd" d="M30 5.375C16.4359 5.375 5.5 16.209 5.5 29.5C5.5 42.791 16.4359 53.625 30 53.625C43.5641 53.625 54.5 42.791 54.5 29.5C54.5 16.209 43.5641 5.375 30 5.375ZM0.5 29.5C0.5 13.3819 13.7407 0.375 30 0.375C46.2593 0.375 59.5 13.3819 59.5 29.5C59.5 45.6181 46.2593 58.625 30 58.625C13.7407 58.625 0.5 45.6181 0.5 29.5ZM40.4666 20.8191C41.5847 21.629 41.8346 23.1921 41.0247 24.3103L29.7747 39.8416C29.347 40.4319 28.6831 40.8062 27.9567 40.8664C27.2302 40.9267 26.5137 40.6669 25.9946 40.1551L19.2446 33.4988C18.2615 32.5294 18.2505 30.9465 19.2199 29.9634C20.1894 28.9803 21.7722 28.9692 22.7554 29.9387L27.4328 34.5512L36.9753 21.3772C37.7853 20.259 39.3484 20.0091 40.4666 20.8191Z" fill="url(#paint0_linear_5_21)"/>
<defs>
<linearGradient id="paint0_linear_5_21" x1="18.4737" y1="58.5183" x2="50.1171" y2="0.140118" gradientUnits="userSpaceOnUse">
<stop stop-color="#362B85"/>
<stop offset="1" stop-color="#E8A45D"/>
</linearGradient>
</defs>
</svg>
