<?xml version="1.0" encoding="UTF-8"?>
<svg width="17px" height="17px" viewBox="0 0 17 17" version="1.1" xmlns="http://www.w3.org/2000/svg" xmlns:xlink="http://www.w3.org/1999/xlink">
    <title>info-black-24dp</title>
    <g id="Page-1" stroke="none" stroke-width="1" fill="none" fill-rule="evenodd">
        <g id="Design-Draft-3-CM-Certification-Program@1920" transform="translate(-1239.000000, -538.000000)">
            <g id="Change-Management-Certification-Program-Section" transform="translate(0.000000, 98.000000)">
                <g id="Program-Card" transform="translate(1082.000000, 61.000000)">
                    <g id="info-black-24dp" transform="translate(157.000000, 379.000000)">
                        <polygon id="Path" points="0 0 17 0 17 17 0 17"></polygon>
                        <path d="M7.79166667,4.95833333 L9.20833333,4.95833333 L9.20833333,6.375 L7.79166667,6.375 L7.79166667,4.95833333 Z M7.79166667,7.79166667 L9.20833333,7.79166667 L9.20833333,12.0416667 L7.79166667,12.0416667 L7.79166667,7.79166667 Z M8.5,1.41666667 C4.59,1.41666667 1.41666667,4.59 1.41666667,8.5 C1.41666667,12.41 4.59,15.5833333 8.5,15.5833333 C12.41,15.5833333 15.5833333,12.41 15.5833333,8.5 C15.5833333,4.59 12.41,1.41666667 8.5,1.41666667 Z M8.5,14.1666667 C5.37625,14.1666667 2.83333333,11.62375 2.83333333,8.5 C2.83333333,5.37625 5.37625,2.83333333 8.5,2.83333333 C11.62375,2.83333333 14.1666667,5.37625 14.1666667,8.5 C14.1666667,11.62375 11.62375,14.1666667 8.5,14.1666667 Z" id="Shape" fill="#B59362" fill-rule="nonzero"></path>
                    </g>
                </g>
            </g>
        </g>
    </g>
</svg>