<svg width="100" height="100" viewBox="0 0 100 100" fill="none" xmlns="http://www.w3.org/2000/svg">
<path d="M20.8043 51.108V50.208L21.5243 50.136C22.4363 50.04 23.1443 49.92 23.6483 49.776C24.1523 49.608 24.5003 49.272 24.6923 48.768C24.8843 48.24 24.9803 47.388 24.9803 46.212V31.128C24.9803 30.096 24.7643 29.376 24.3323 28.968C23.9243 28.56 23.1323 28.308 21.9563 28.212L20.7323 28.104V27.024C21.6683 26.904 22.4363 26.76 23.0363 26.592C23.6363 26.4 24.1883 26.196 24.6923 25.98C25.1963 25.74 25.7483 25.5 26.3483 25.26H27.7163V46.212C27.7163 47.388 27.8003 48.24 27.9683 48.768C28.1603 49.272 28.4963 49.608 28.9763 49.776C29.4803 49.92 30.1883 50.04 31.1003 50.136L31.8203 50.208V51.108L26.3123 51L20.8043 51.108ZM36.7866 51.396C36.1146 51.396 35.5626 51.168 35.1306 50.712C34.6986 50.256 34.4826 49.716 34.4826 49.092C34.4826 48.492 34.6986 47.976 35.1306 47.544C35.5626 47.088 36.1146 46.86 36.7866 46.86C37.4106 46.86 37.9386 47.088 38.3706 47.544C38.8026 47.976 39.0186 48.492 39.0186 49.092C39.0186 49.716 38.8026 50.256 38.3706 50.712C37.9386 51.168 37.4106 51.396 36.7866 51.396ZM48.058 51.108V50.208L48.778 50.136C49.69 50.04 50.386 49.92 50.866 49.776C51.37 49.608 51.706 49.272 51.874 48.768C52.066 48.24 52.162 47.388 52.162 46.212V44.844H42.406V43.944L43.882 41.64C45.058 39.936 46.15 38.136 47.158 36.24C48.19 34.344 49.126 32.472 49.966 30.624C50.83 28.752 51.586 27.024 52.234 25.44H56.914V25.944L43.558 43.908H52.162V37.104C52.426 37.032 52.762 36.852 53.17 36.564C53.602 36.252 53.914 35.868 54.106 35.412H54.97V43.908H58.318V44.844H54.97V46.212C54.97 47.388 55.042 48.24 55.186 48.768C55.354 49.272 55.642 49.608 56.05 49.776C56.458 49.92 57.046 50.04 57.814 50.136L58.462 50.208V51.108L53.602 51L48.058 51.108ZM59.9737 51.108V50.28L60.4417 50.208C61.5457 50.04 62.4457 49.668 63.1417 49.092C63.8617 48.492 64.5097 47.868 65.0857 47.22L68.2537 43.656L63.1777 38.076C62.6017 37.452 62.1217 36.996 61.7377 36.708C61.3777 36.396 60.9457 36.216 60.4417 36.168L60.1177 36.132V35.304L64.1497 35.412L68.1817 35.304V36.132L67.6057 36.24C67.5097 36.264 67.3417 36.312 67.1017 36.384C66.8617 36.456 66.6337 36.564 66.4177 36.708C66.2257 36.828 66.1297 37.008 66.1297 37.248C66.1297 37.536 66.3337 37.92 66.7417 38.4L70.0177 42L73.2217 38.4C73.5577 38.04 73.7257 37.68 73.7257 37.32C73.7257 37.032 73.5457 36.792 73.1857 36.6C72.8257 36.384 72.4057 36.24 71.9257 36.168L71.7097 36.132V35.304L75.8857 35.412L78.6217 35.304V36.132L78.2257 36.168C77.2417 36.264 76.3777 36.612 75.6337 37.212C74.9137 37.812 74.2417 38.46 73.6177 39.156L70.5577 42.612L74.9137 47.4C75.4657 48 76.0537 48.588 76.6777 49.164C77.3017 49.74 77.9617 50.088 78.6577 50.208L79.0537 50.28V51.072L75.4897 51L71.0257 51.072V50.244L71.6017 50.172C72.5377 50.052 73.0057 49.788 73.0057 49.38C73.0057 49.26 72.9697 49.116 72.8977 48.948C72.8497 48.756 72.7297 48.564 72.5377 48.372L68.7937 44.268L65.5897 47.976C65.4217 48.144 65.2777 48.336 65.1577 48.552C65.0617 48.744 65.0137 48.936 65.0137 49.128C65.0137 49.368 65.1097 49.596 65.3017 49.812C65.4937 50.004 65.8177 50.124 66.2737 50.172L66.8497 50.244V51.108L63.4657 51L59.9737 51.108ZM26.5989 79V64.6H29.1189L34.3189 78.48H33.5589L38.7189 64.6H41.2789V79H39.6589V65.46H39.8789L34.8589 79H32.8989L27.8789 65.58H28.0989V79H26.5989ZM48.8439 79.2C47.8439 79.2 46.9639 78.9667 46.2039 78.5C45.4439 78.0333 44.8506 77.4 44.4239 76.6C44.0106 75.7867 43.8039 74.8733 43.8039 73.86C43.8039 72.8333 44.0172 71.9267 44.4439 71.14C44.8706 70.3533 45.4572 69.7333 46.2039 69.28C46.9639 68.8267 47.8439 68.6 48.8439 68.6C49.8572 68.6 50.7372 68.8267 51.4839 69.28C52.2439 69.7333 52.8306 70.3533 53.2439 71.14C53.6706 71.9267 53.8839 72.8333 53.8839 73.86C53.8839 74.8733 53.6706 75.7867 53.2439 76.6C52.8306 77.4 52.2439 78.0333 51.4839 78.5C50.7372 78.9667 49.8572 79.2 48.8439 79.2ZM48.8439 77.84C49.5372 77.84 50.1372 77.6733 50.6439 77.34C51.1506 76.9933 51.5439 76.52 51.8239 75.92C52.1039 75.32 52.2439 74.6267 52.2439 73.84C52.2439 72.6667 51.9306 71.7267 51.3039 71.02C50.6906 70.3133 49.8706 69.96 48.8439 69.96C47.8306 69.96 47.0106 70.3133 46.3839 71.02C45.7572 71.7267 45.4439 72.6667 45.4439 73.84C45.4439 74.6267 45.5839 75.32 45.8639 75.92C46.1439 76.52 46.5372 76.9933 47.0439 77.34C47.5639 77.6733 48.1639 77.84 48.8439 77.84ZM56.2836 79V68.8H57.7836V71.4H57.8836V79H56.2836ZM57.8836 73.68L57.6236 71.26C57.8636 70.3933 58.2903 69.7333 58.9036 69.28C59.5169 68.8267 60.2236 68.6 61.0236 68.6C61.3569 68.6 61.5836 68.6267 61.7036 68.68V70.22C61.6369 70.1933 61.5436 70.18 61.4236 70.18C61.3036 70.1667 61.1569 70.16 60.9836 70.16C59.9703 70.16 59.1969 70.4667 58.6636 71.08C58.1436 71.68 57.8836 72.5467 57.8836 73.68ZM67.612 79.2C66.6387 79.2 65.7787 78.9733 65.032 78.52C64.2854 78.0533 63.6987 77.42 63.272 76.62C62.8454 75.82 62.632 74.9 62.632 73.86C62.632 72.82 62.8387 71.9067 63.252 71.12C63.6787 70.32 64.272 69.7 65.032 69.26C65.792 68.82 66.6654 68.6 67.652 68.6C68.5987 68.6 69.4187 68.8067 70.112 69.22C70.8187 69.6333 71.3587 70.2133 71.732 70.96C72.1187 71.7067 72.312 72.5867 72.312 73.6C72.312 73.7333 72.3054 73.86 72.292 73.98C72.292 74.1 72.2787 74.2333 72.252 74.38H63.832V73.04H71.272L70.752 73.78C70.752 72.5533 70.4787 71.6133 69.932 70.96C69.3987 70.2933 68.6387 69.96 67.652 69.96C66.6387 69.96 65.8187 70.3133 65.192 71.02C64.5787 71.7133 64.272 72.6533 64.272 73.84C64.272 75.0533 64.5787 76.0267 65.192 76.76C65.8187 77.48 66.652 77.84 67.692 77.84C68.3454 77.84 68.9187 77.7 69.412 77.42C69.9054 77.1267 70.2654 76.7133 70.492 76.18H72.012C71.6787 77.1133 71.1187 77.8533 70.332 78.4C69.5587 78.9333 68.652 79.2 67.612 79.2Z" fill="#350944"/>
</svg>
