<svg width="100" height="100" viewBox="0 0 100 100" fill="none" xmlns="http://www.w3.org/2000/svg">
<path d="M23.6412 51.108V50.208L24.3612 50.136C25.2732 50.04 25.9692 49.92 26.4492 49.776C26.9532 49.608 27.2892 49.272 27.4572 48.768C27.6492 48.24 27.7452 47.388 27.7452 46.212V44.844H17.9892V43.944L19.4652 41.64C20.6412 39.936 21.7332 38.136 22.7412 36.24C23.7732 34.344 24.7092 32.472 25.5492 30.624C26.4132 28.752 27.1692 27.024 27.8172 25.44H32.4972V25.944L19.1412 43.908H27.7452V37.104C28.0092 37.032 28.3452 36.852 28.7532 36.564C29.1852 36.252 29.4972 35.868 29.6892 35.412H30.5532V43.908H33.9012V44.844H30.5532V46.212C30.5532 47.388 30.6252 48.24 30.7692 48.768C30.9372 49.272 31.2252 49.608 31.6332 49.776C32.0412 49.92 32.6292 50.04 33.3972 50.136L34.0452 50.208V51.108L29.1852 51L23.6412 51.108ZM40.021 51.396C39.349 51.396 38.797 51.168 38.365 50.712C37.933 50.256 37.717 49.716 37.717 49.092C37.717 48.492 37.933 47.976 38.365 47.544C38.797 47.088 39.349 46.86 40.021 46.86C40.645 46.86 41.173 47.088 41.605 47.544C42.037 47.976 42.253 48.492 42.253 49.092C42.253 49.716 42.037 50.256 41.605 50.712C41.173 51.168 40.645 51.396 40.021 51.396ZM53.5963 51.396C51.6523 51.396 50.0923 50.916 48.9163 49.956C47.7643 48.972 46.9363 47.568 46.4323 45.744C45.9283 43.92 45.6763 41.712 45.6763 39.12C45.6763 35.832 46.0723 33.144 46.8643 31.056C47.6803 28.968 48.7843 27.432 50.1763 26.448C51.5683 25.44 53.1163 24.936 54.8203 24.936C55.7803 24.936 56.6443 25.104 57.4123 25.44C58.2043 25.752 58.8403 26.196 59.3203 26.772C59.8003 27.324 60.0403 27.96 60.0403 28.68C60.0403 29.28 59.8963 29.784 59.6083 30.192C59.3443 30.576 58.9123 30.768 58.3123 30.768C57.7603 30.768 57.3403 30.6 57.0523 30.264C56.7883 29.904 56.6563 29.532 56.6563 29.148C56.6563 28.74 56.7643 28.428 56.9803 28.212C57.2203 27.972 57.3403 27.696 57.3403 27.384C57.3403 26.904 57.0643 26.544 56.5123 26.304C55.9843 26.064 55.4323 25.944 54.8563 25.944C53.5603 25.944 52.4323 26.424 51.4723 27.384C50.5123 28.344 49.8283 29.844 49.4203 31.884C49.2523 32.796 49.1203 33.828 49.0243 34.98C48.9283 36.108 48.8683 37.356 48.8443 38.724C49.5643 37.596 50.4163 36.792 51.4003 36.312C52.4083 35.808 53.4283 35.556 54.4603 35.556C55.6123 35.556 56.7163 35.844 57.7723 36.42C58.8523 36.972 59.7283 37.812 60.4003 38.94C61.0723 40.044 61.4083 41.412 61.4083 43.044C61.4083 44.412 61.1323 45.732 60.5803 47.004C60.0523 48.276 59.2123 49.332 58.0603 50.172C56.9083 50.988 55.4203 51.396 53.5963 51.396ZM53.8123 50.388C55.5163 50.388 56.6803 49.728 57.3043 48.408C57.9283 47.088 58.2403 45.3 58.2403 43.044C58.2403 40.836 57.8563 39.228 57.0883 38.22C56.3443 37.188 55.3123 36.672 53.9923 36.672C53.0563 36.672 52.1923 36.936 51.4003 37.464C50.6323 37.968 50.0083 38.676 49.5283 39.588C49.0723 40.476 48.8443 41.496 48.8443 42.648V43.044C48.8443 45.3 49.2763 47.088 50.1403 48.408C51.0043 49.728 52.2283 50.388 53.8123 50.388ZM62.6807 51.108V50.28L63.1487 50.208C64.2527 50.04 65.1527 49.668 65.8487 49.092C66.5687 48.492 67.2167 47.868 67.7927 47.22L70.9607 43.656L65.8847 38.076C65.3087 37.452 64.8287 36.996 64.4447 36.708C64.0847 36.396 63.6527 36.216 63.1487 36.168L62.8247 36.132V35.304L66.8567 35.412L70.8887 35.304V36.132L70.3127 36.24C70.2167 36.264 70.0487 36.312 69.8087 36.384C69.5687 36.456 69.3407 36.564 69.1247 36.708C68.9327 36.828 68.8367 37.008 68.8367 37.248C68.8367 37.536 69.0407 37.92 69.4487 38.4L72.7247 42L75.9287 38.4C76.2647 38.04 76.4327 37.68 76.4327 37.32C76.4327 37.032 76.2527 36.792 75.8927 36.6C75.5327 36.384 75.1127 36.24 74.6327 36.168L74.4167 36.132V35.304L78.5927 35.412L81.3287 35.304V36.132L80.9327 36.168C79.9487 36.264 79.0847 36.612 78.3407 37.212C77.6207 37.812 76.9487 38.46 76.3247 39.156L73.2647 42.612L77.6207 47.4C78.1727 48 78.7607 48.588 79.3847 49.164C80.0087 49.74 80.6687 50.088 81.3647 50.208L81.7607 50.28V51.072L78.1967 51L73.7327 51.072V50.244L74.3087 50.172C75.2447 50.052 75.7127 49.788 75.7127 49.38C75.7127 49.26 75.6767 49.116 75.6047 48.948C75.5567 48.756 75.4367 48.564 75.2447 48.372L71.5007 44.268L68.2967 47.976C68.1287 48.144 67.9847 48.336 67.8647 48.552C67.7687 48.744 67.7207 48.936 67.7207 49.128C67.7207 49.368 67.8167 49.596 68.0087 49.812C68.2007 50.004 68.5247 50.124 68.9807 50.172L69.5567 50.244V51.108L66.1727 51L62.6807 51.108ZM26.5989 79V64.6H29.1189L34.3189 78.48H33.5589L38.7189 64.6H41.2789V79H39.6589V65.46H39.8789L34.8589 79H32.8989L27.8789 65.58H28.0989V79H26.5989ZM48.8439 79.2C47.8439 79.2 46.9639 78.9667 46.2039 78.5C45.4439 78.0333 44.8506 77.4 44.4239 76.6C44.0106 75.7867 43.8039 74.8733 43.8039 73.86C43.8039 72.8333 44.0172 71.9267 44.4439 71.14C44.8706 70.3533 45.4572 69.7333 46.2039 69.28C46.9639 68.8267 47.8439 68.6 48.8439 68.6C49.8572 68.6 50.7372 68.8267 51.4839 69.28C52.2439 69.7333 52.8306 70.3533 53.2439 71.14C53.6706 71.9267 53.8839 72.8333 53.8839 73.86C53.8839 74.8733 53.6706 75.7867 53.2439 76.6C52.8306 77.4 52.2439 78.0333 51.4839 78.5C50.7372 78.9667 49.8572 79.2 48.8439 79.2ZM48.8439 77.84C49.5372 77.84 50.1372 77.6733 50.6439 77.34C51.1506 76.9933 51.5439 76.52 51.8239 75.92C52.1039 75.32 52.2439 74.6267 52.2439 73.84C52.2439 72.6667 51.9306 71.7267 51.3039 71.02C50.6906 70.3133 49.8706 69.96 48.8439 69.96C47.8306 69.96 47.0106 70.3133 46.3839 71.02C45.7572 71.7267 45.4439 72.6667 45.4439 73.84C45.4439 74.6267 45.5839 75.32 45.8639 75.92C46.1439 76.52 46.5372 76.9933 47.0439 77.34C47.5639 77.6733 48.1639 77.84 48.8439 77.84ZM56.2836 79V68.8H57.7836V71.4H57.8836V79H56.2836ZM57.8836 73.68L57.6236 71.26C57.8636 70.3933 58.2903 69.7333 58.9036 69.28C59.5169 68.8267 60.2236 68.6 61.0236 68.6C61.3569 68.6 61.5836 68.6267 61.7036 68.68V70.22C61.6369 70.1933 61.5436 70.18 61.4236 70.18C61.3036 70.1667 61.1569 70.16 60.9836 70.16C59.9703 70.16 59.1969 70.4667 58.6636 71.08C58.1436 71.68 57.8836 72.5467 57.8836 73.68ZM67.612 79.2C66.6387 79.2 65.7787 78.9733 65.032 78.52C64.2854 78.0533 63.6987 77.42 63.272 76.62C62.8454 75.82 62.632 74.9 62.632 73.86C62.632 72.82 62.8387 71.9067 63.252 71.12C63.6787 70.32 64.272 69.7 65.032 69.26C65.792 68.82 66.6654 68.6 67.652 68.6C68.5987 68.6 69.4187 68.8067 70.112 69.22C70.8187 69.6333 71.3587 70.2133 71.732 70.96C72.1187 71.7067 72.312 72.5867 72.312 73.6C72.312 73.7333 72.3054 73.86 72.292 73.98C72.292 74.1 72.2787 74.2333 72.252 74.38H63.832V73.04H71.272L70.752 73.78C70.752 72.5533 70.4787 71.6133 69.932 70.96C69.3987 70.2933 68.6387 69.96 67.652 69.96C66.6387 69.96 65.8187 70.3133 65.192 71.02C64.5787 71.7133 64.272 72.6533 64.272 73.84C64.272 75.0533 64.5787 76.0267 65.192 76.76C65.8187 77.48 66.652 77.84 67.692 77.84C68.3454 77.84 68.9187 77.7 69.412 77.42C69.9054 77.1267 70.2654 76.7133 70.492 76.18H72.012C71.6787 77.1133 71.1187 77.8533 70.332 78.4C69.5587 78.9333 68.652 79.2 67.612 79.2Z" fill="#350944"/>
</svg>
