<svg width="100" height="100" viewBox="0 0 100 100" fill="none" xmlns="http://www.w3.org/2000/svg">
<path d="M33.9296 51L46.0616 28.14H38.0336C36.8576 28.14 36.0056 28.236 35.4776 28.428C34.9736 28.596 34.6376 28.908 34.4696 29.364C34.3256 29.82 34.2056 30.468 34.1096 31.308L34.0376 32.028H33.1376L33.2456 26.7V25.44H48.0416V26.232L45.3416 31.74C44.2616 34.212 43.3136 36.504 42.4976 38.616C41.7056 40.728 40.9856 42.78 40.3376 44.772C39.6896 46.764 39.0536 48.84 38.4296 51H33.9296ZM48.3884 51.108V50.28L48.8564 50.208C49.9604 50.04 50.8604 49.668 51.5564 49.092C52.2764 48.492 52.9244 47.868 53.5004 47.22L56.6684 43.656L51.5924 38.076C51.0164 37.452 50.5364 36.996 50.1524 36.708C49.7924 36.396 49.3604 36.216 48.8564 36.168L48.5324 36.132V35.304L52.5644 35.412L56.5964 35.304V36.132L56.0204 36.24C55.9244 36.264 55.7564 36.312 55.5164 36.384C55.2764 36.456 55.0484 36.564 54.8324 36.708C54.6404 36.828 54.5444 37.008 54.5444 37.248C54.5444 37.536 54.7484 37.92 55.1564 38.4L58.4324 42L61.6364 38.4C61.9724 38.04 62.1404 37.68 62.1404 37.32C62.1404 37.032 61.9604 36.792 61.6004 36.6C61.2404 36.384 60.8204 36.24 60.3404 36.168L60.1244 36.132V35.304L64.3004 35.412L67.0364 35.304V36.132L66.6404 36.168C65.6564 36.264 64.7924 36.612 64.0484 37.212C63.3284 37.812 62.6564 38.46 62.0324 39.156L58.9724 42.612L63.3284 47.4C63.8804 48 64.4684 48.588 65.0924 49.164C65.7164 49.74 66.3764 50.088 67.0724 50.208L67.4684 50.28V51.072L63.9044 51L59.4404 51.072V50.244L60.0164 50.172C60.9524 50.052 61.4204 49.788 61.4204 49.38C61.4204 49.26 61.3844 49.116 61.3124 48.948C61.2644 48.756 61.1444 48.564 60.9524 48.372L57.2084 44.268L54.0044 47.976C53.8364 48.144 53.6924 48.336 53.5724 48.552C53.4764 48.744 53.4284 48.936 53.4284 49.128C53.4284 49.368 53.5244 49.596 53.7164 49.812C53.9084 50.004 54.2324 50.124 54.6884 50.172L55.2644 50.244V51.108L51.8804 51L48.3884 51.108ZM27.0989 79V64.6H29.6189L34.8189 78.48H34.0589L39.2189 64.6H41.7789V79H40.1589V65.46H40.3789L35.3589 79H33.3989L28.3789 65.58H28.5989V79H27.0989ZM49.3439 79.2C48.3439 79.2 47.4639 78.9667 46.7039 78.5C45.9439 78.0333 45.3506 77.4 44.9239 76.6C44.5106 75.7867 44.3039 74.8733 44.3039 73.86C44.3039 72.8333 44.5172 71.9267 44.9439 71.14C45.3706 70.3533 45.9572 69.7333 46.7039 69.28C47.4639 68.8267 48.3439 68.6 49.3439 68.6C50.3572 68.6 51.2372 68.8267 51.9839 69.28C52.7439 69.7333 53.3306 70.3533 53.7439 71.14C54.1706 71.9267 54.3839 72.8333 54.3839 73.86C54.3839 74.8733 54.1706 75.7867 53.7439 76.6C53.3306 77.4 52.7439 78.0333 51.9839 78.5C51.2372 78.9667 50.3572 79.2 49.3439 79.2ZM49.3439 77.84C50.0372 77.84 50.6372 77.6733 51.1439 77.34C51.6506 76.9933 52.0439 76.52 52.3239 75.92C52.6039 75.32 52.7439 74.6267 52.7439 73.84C52.7439 72.6667 52.4306 71.7267 51.8039 71.02C51.1906 70.3133 50.3706 69.96 49.3439 69.96C48.3306 69.96 47.5106 70.3133 46.8839 71.02C46.2572 71.7267 45.9439 72.6667 45.9439 73.84C45.9439 74.6267 46.0839 75.32 46.3639 75.92C46.6439 76.52 47.0372 76.9933 47.5439 77.34C48.0639 77.6733 48.6639 77.84 49.3439 77.84ZM56.7836 79V68.8H58.2836V71.4H58.3836V79H56.7836ZM58.3836 73.68L58.1236 71.26C58.3636 70.3933 58.7903 69.7333 59.4036 69.28C60.0169 68.8267 60.7236 68.6 61.5236 68.6C61.8569 68.6 62.0836 68.6267 62.2036 68.68V70.22C62.1369 70.1933 62.0436 70.18 61.9236 70.18C61.8036 70.1667 61.6569 70.16 61.4836 70.16C60.4703 70.16 59.6969 70.4667 59.1636 71.08C58.6436 71.68 58.3836 72.5467 58.3836 73.68ZM68.112 79.2C67.1387 79.2 66.2787 78.9733 65.532 78.52C64.7854 78.0533 64.1987 77.42 63.772 76.62C63.3454 75.82 63.132 74.9 63.132 73.86C63.132 72.82 63.3387 71.9067 63.752 71.12C64.1787 70.32 64.772 69.7 65.532 69.26C66.292 68.82 67.1654 68.6 68.152 68.6C69.0987 68.6 69.9187 68.8067 70.612 69.22C71.3187 69.6333 71.8587 70.2133 72.232 70.96C72.6187 71.7067 72.812 72.5867 72.812 73.6C72.812 73.7333 72.8054 73.86 72.792 73.98C72.792 74.1 72.7787 74.2333 72.752 74.38H64.332V73.04H71.772L71.252 73.78C71.252 72.5533 70.9787 71.6133 70.432 70.96C69.8987 70.2933 69.1387 69.96 68.152 69.96C67.1387 69.96 66.3187 70.3133 65.692 71.02C65.0787 71.7133 64.772 72.6533 64.772 73.84C64.772 75.0533 65.0787 76.0267 65.692 76.76C66.3187 77.48 67.152 77.84 68.192 77.84C68.8454 77.84 69.4187 77.7 69.912 77.42C70.4054 77.1267 70.7654 76.7133 70.992 76.18H72.512C72.1787 77.1133 71.6187 77.8533 70.832 78.4C70.0587 78.9333 69.152 79.2 68.112 79.2Z" fill="#350944"/>
</svg>
