<svg width="100" height="100" viewBox="0 0 100 100" fill="none" xmlns="http://www.w3.org/2000/svg">
<path d="M50 35V50L62.5 57.5" stroke="#350944" stroke-width="1.6" stroke-linecap="round" stroke-linejoin="round"/>
<path d="M67.5 42.5H80V30" stroke="#350944" stroke-width="1.6" stroke-linecap="round" stroke-linejoin="round"/>
<path d="M68.8743 70C64.9431 73.7095 60.006 76.1782 54.6798 77.0978C49.3536 78.0174 43.8745 77.3471 38.9271 75.1706C33.9797 72.9941 29.7834 69.4079 26.8624 64.8601C23.9415 60.3123 22.4255 55.0046 22.5039 49.6002C22.5822 44.1957 24.2514 38.9342 27.303 34.473C30.3545 30.0118 34.653 26.5487 39.6615 24.5166C44.6699 22.4844 50.1661 21.9731 55.4634 23.0468C60.7607 24.1204 65.6242 26.7312 69.4462 30.5531C73.1243 34.2781 76.1618 37.7906 79.9993 42.5" stroke="#350944" stroke-width="1.6" stroke-linecap="round" stroke-linejoin="round"/>
</svg>
