<?xml version="1.0" encoding="UTF-8"?>
<svg width="102px" height="102px" viewBox="0 0 102 102" version="1.1" xmlns="http://www.w3.org/2000/svg" xmlns:xlink="http://www.w3.org/1999/xlink">
    <title>Phase 2</title>
    <defs>
        <linearGradient x1="-0.219607196%" y1="49.9995633%" x2="99.6479589%" y2="49.9995633%" id="linearGradient-1">
            <stop stop-color="#9797C2" offset="0%"></stop>
            <stop stop-color="#7473AC" offset="20%"></stop>
            <stop stop-color="#58569A" offset="41%"></stop>
            <stop stop-color="#43408D" offset="61%"></stop>
            <stop stop-color="#363386" offset="81%"></stop>
            <stop stop-color="#322F83" offset="100%"></stop>
        </linearGradient>
        <polygon id="path-2" points="0 0 4 0 4 4.1375864 0 4.1375864"></polygon>
    </defs>
    <g id="Workspace" stroke="none" stroke-width="1" fill="none" fill-rule="evenodd">
        <g id="Prosci-PillarPage-CM-Desktop" transform="translate(-532.000000, -11169.000000)">
            <g id="Section-3---Change-Management-Process" transform="translate(0.000000, 8178.000000)">
                <g id="A-framework-for-organizational-change" transform="translate(380.000000, 2095.000000)">
                    <g id="Phase-2" transform="translate(153.000000, 895.000000)">
                        <g id="Group" transform="translate(0.000000, 2.000000)">
                            <circle id="Oval" stroke="#322F83" stroke-width="1.5" fill="#FFFFFF" fill-rule="nonzero" cx="50" cy="50" r="50"></circle>
                            <path d="M92.0127796,40.8945687 C91.2939297,37.4600639 90.0958466,34.1054313 88.5782748,30.9105431 C81.3897764,16.5335463 66.6134185,6.78913738 50.4792332,6.78913738 C50.4792332,6.78913738 50,6.78913738 49.7603834,6.78913738 L49.5207668,6.78913738 C42.4121406,6.70926518 36.5015974,12.1405751 35.942492,19.2492013 C35.3833866,26.5175719 40.8146965,32.9073482 48.0830671,33.4664537 C48.1629393,33.4664537 48.2428115,33.4664537 48.3226837,33.4664537 C49.5207668,33.5463259 50.3194888,33.4664537 51.7571885,33.6261981 C56.5495208,34.2651757 60.7827476,36.9009585 63.3386581,40.9744409 C64.2172524,42.3322684 64.9361022,43.8498403 65.4153355,45.4472843 L65.5750799,46.086262 C65.8146965,47.2044728 65.9744409,48.4025559 65.9744409,49.600639 C65.9744409,58.2268371 58.9456869,65.2555911 50.3194888,65.2555911 C47.8434505,65.2555911 45.3674121,64.6964856 43.1309904,63.4984026 L43.0511182,63.658147 L42.4121406,63.2587859 L42.4920128,63.0990415 C40.4952077,61.9808307 38.7380192,60.4632588 37.3801917,58.6261981 C35.4632588,56.0702875 34.3450479,52.8753994 34.2651757,49.6805112 C34.2651757,49.4408946 34.2651757,49.1214058 34.2651757,48.8817891 C34.2651757,47.9233227 34.4249201,46.9648562 34.5846645,46.086262 L7.74760383,46.0063898 C7.66773163,47.1246006 7.58760865,48.3226837 7.58760865,49.5207668 C7.50798722,73.0830671 26.5175719,92.172524 50.0798722,92.2526469 C73.6421725,92.3322684 92.7316294,73.3226837 92.8115016,49.7603834 C92.8913738,46.7252396 92.6517572,43.7699681 92.0127796,40.8945687 Z" id="Path" fill="#B3B3B3" fill-rule="nonzero"></path>
                            <path d="M93.0511182,51.4376997 C93.0511182,49.6805112 92.971246,47.9233227 92.7316294,46.1661342 C92.7316294,46.1661342 91.6134185,36.341853 78.8338658,36.341853 C70.8466454,36.341853 66.0543131,42.7316294 66.3738019,47.6837061 C66.6134185,51.1980831 65.9744409,48.4025559 65.9744409,49.600639 C65.9744409,58.2268371 58.9456869,65.2555911 50.3194888,65.2555911 C47.8434505,65.2555911 45.3674121,64.6964856 43.1309904,63.4984026 L42.4920128,63.0990415 C41.0543131,62.3003195 39.7763578,61.341853 38.5782748,60.14377 C35.8626198,57.2683706 34.2651757,53.514377 34.1853035,49.5207668 C34.1853035,48.3226837 34.2651757,47.2044728 34.5846645,46.086262 L8.14696486,46.0063898 L7.82747604,46.0063898 C7.74760383,47.1246006 7.66773163,48.3226837 7.66773163,49.5207668 C7.1086262,73.0830671 25.798722,92.6517572 49.4408946,93.1309904 C73.0830671,93.6102236 92.4920128,75 93.0511182,51.4376997 L93.0511182,51.4376997 L93.0511182,51.4376997 Z" id="Path" fill="#322F83" fill-rule="nonzero"></path>
                            <circle id="Oval" fill="#FFFFFF" fill-rule="nonzero" cx="49.3610224" cy="20.4472843" r="9.66453674"></circle>
                            <text id="Phase" fill="#939598" fill-rule="nonzero" font-family="OpenSans-Semibold, Open Sans" font-size="4.25" font-weight="500">
                                <tspan x="43.1789137" y="18.9121406">Phase</tspan>
                            </text>
                            <text id="3" fill="#939598" fill-rule="nonzero" font-family="OpenSans-Semibold, Open Sans" font-size="8.7" font-weight="500">
                                <tspan x="47.35623" y="26.7220447">3</tspan>
                            </text>
                            <path d="M79.2332268,38.8977636 C84.5047923,38.8977636 88.8178914,43.1309904 88.8178914,48.4824281 L88.8178914,48.4824281 L92.571885,48.4824281 L92.7316294,48.4824281 C93.0511182,40.8945687 86.6613419,35.14377 79.313099,35.14377 C71.9648562,35.14377 65.9744409,41.0543131 65.9744409,48.4025559 C65.9744409,49.9201278 66.2140575,51.5175719 66.7731629,52.9552716 L69.1693291,53.4345048 L70.1277955,51.2779553 C68.6102236,46.2460064 71.485623,40.8945687 76.5175719,39.2971246 C77.3961661,39.057508 78.2747604,38.8977636 79.2332268,38.8977636 Z" id="Path" fill="url(#linearGradient-1)" fill-rule="nonzero"></path>
                            <path d="M67.0127796,53.6741214 C67.4920128,54.7923323 68.0511182,55.7507987 68.7699681,56.7092652 L71.4057508,56.8690096 L71.9648562,54.7124601 C71.3258786,53.913738 70.8466454,53.0351438 70.4472843,52.0766773 L69.4888179,54.1533546 L67.0127796,53.6741214 Z" id="Path" fill="#9797C2" fill-rule="nonzero"></path>
                            <path d="M74.6805112,59.2651757 L74.6805112,57.028754 C73.8019169,56.5495208 73.0031949,55.9105431 72.284345,55.1916933 L71.7252396,57.428115 L69.0894569,57.2683706 C70.0479233,58.3865815 71.086262,59.3450479 72.3642173,60.0638978 L74.6805112,59.2651757 Z" id="Path" fill="#9797C2" fill-rule="nonzero"></path>
                            <circle id="Oval" fill="#FFFFFF" fill-rule="nonzero" cx="79.2332268" cy="48.4824281" r="9.66453674"></circle>
                            <text id="Phase" fill="#322F83" fill-rule="nonzero" font-family="OpenSans-Semibold, Open Sans" font-size="4.25" font-weight="500">
                                <tspan x="73.1549521" y="47.0990415">Phase</tspan>
                            </text>
                            <text id="2" fill="#322F83" fill-rule="nonzero" font-family="OpenSans-Semibold, Open Sans" font-size="8.7" font-weight="500">
                                <tspan x="77.3322684" y="54.9089457">2</tspan>
                            </text>
                            <path d="M34.6645367,43.6900958 L21.3258786,35.7028754 C21.2460064,35.7028754 21.2460064,35.6230032 21.2460064,35.543131 L21.3258786,22.2044728 C21.6453674,22.2044728 21.884984,22.3642173 22.0447284,22.6038339 L34.5846645,42.7316294 C34.8242812,43.1309904 34.8242812,43.4504792 34.6645367,43.6900958 Z" id="Path" fill="#999999" fill-rule="nonzero"></path>
                            <path d="M21.4057508,22.284345 C21.086262,22.284345 20.7667732,22.4440895 20.6070288,22.6837061 L18.370607,26.2779553 L7.98722045,42.8913738 C7.90734824,43.1309904 7.90734824,43.4504792 7.98722045,43.6900958 L21.485623,35.7827476 C21.485623,35.7827476 21.485623,35.7827476 21.485623,35.7827476 L21.4057508,22.284345 L21.4057508,22.284345 Z" id="Path" fill="#CCCCCC" fill-rule="nonzero"></path>
                            <path d="M34.6645367,43.6900958 L21.485623,35.7028754 C21.485623,35.7028754 21.4057508,35.7028754 21.4057508,35.7028754 L7.98722045,43.6102236 C8.14696486,44.0095847 8.46645367,44.2492013 8.8658147,44.2492013 L34.1054313,44.1693291 C34.3450479,44.1693291 34.5047923,43.9297125 34.6645367,43.6900958 Z" id="Path" fill="#666666" fill-rule="nonzero"></path>
                            <circle id="Oval" fill="#FFFFFF" fill-rule="nonzero" opacity="0.9" cx="21.4057508" cy="36.341853" r="3.67412141"></circle>
                            <g id="Group-6" transform="translate(19.500000, 34.250000)">
                                <g id="Group-3">
                                    <mask id="mask-3" fill="white">
                                        <use xlink:href="#path-2"></use>
                                    </mask>
                                    <g id="Clip-2"></g>
                                    <path d="M3.88687274,0.856817978 C3.68890152,1.25539364 3.34077621,1.84721266 3.11180466,2.02717017 C3.31677788,1.61500943 3.4501152,1.10128969 3.49984739,0.536940064 L3.65107873,0.536940064 C3.73103324,0.536940064 3.80380622,0.574044705 3.85078548,0.638738442 C3.89710644,0.70247464 3.91015291,0.781830695 3.88687274,0.856817978 L3.88687274,0.856817978 Z M1.99944343,2.81743918 C1.42480026,2.81743918 1.05016308,2.12621563 0.980861187,1.98767168 C0.774032736,1.57413447 0.640874951,1.05347258 0.595810766,0.484036027 L0.580789371,0.101738532 L3.41809749,0.101738532 L3.40313594,0.482061103 C3.35795206,1.05353242 3.22479428,1.57419432 3.01802567,1.98767168 C2.97553488,2.07259343 2.58623538,2.81743918 1.99944343,2.81743918 L1.99944343,2.81743918 Z M2.35115952,3.59154972 L1.64659026,3.59154972 L1.64659026,2.84042012 C1.75437326,2.88913492 1.87215057,2.91917771 1.99944343,2.91917771 C2.12589844,2.91917771 2.24337652,2.88859631 2.35115952,2.83916335 L2.35115952,3.59154972 Z M3.1277836,3.96959813 L3.1277836,4.03584787 L0.869966187,4.03584787 L0.869966187,3.96959813 C0.869966187,3.81722972 0.993907657,3.69328825 1.14621622,3.69328825 L2.85153356,3.69328825 C3.00390197,3.69328825 3.1277836,3.81722972 3.1277836,3.96959813 L3.1277836,3.96959813 Z M0.113091355,0.856219516 C0.0898111853,0.781172387 0.102917502,0.701876178 0.149178611,0.63813998 C0.19621772,0.573446243 0.268990694,0.536341602 0.348945211,0.536341602 L0.498919776,0.536341602 C0.548233041,1.0987163 0.681330979,1.61231635 0.885945121,2.02477632 C0.656973578,1.8427242 0.310523953,1.25353841 0.113091355,0.856219516 L0.113091355,0.856219516 Z M3.93313385,0.578952093 C3.86682426,0.487626799 3.76394865,0.435201532 3.65107873,0.435201532 L3.50678955,0.435201532 L3.52396541,0 L0.474921452,0 L0.49209731,0.43460307 L0.348945211,0.43460307 C0.23601544,0.43460307 0.133199677,0.486968491 0.0668900925,0.578353631 C0.000520661899,0.669738771 -0.0174930429,0.783745773 0.0174571352,0.891109848 L0.0202699063,0.897932314 C0.0218259074,0.901164008 0.179281247,1.21781023 0.373541997,1.53026721 C0.718375774,2.0848619 0.892767587,2.16774889 0.971585026,2.18013705 C1.07870972,2.35680302 1.27464616,2.62724797 1.54485173,2.78739639 L1.54485173,3.59154972 L1.14621622,3.59154972 C0.937771926,3.59154972 0.768227655,3.76115383 0.768227655,3.96959813 L0.768227655,4.1375864 L3.22958197,4.1375864 L3.22958197,3.96959813 C3.22958197,3.76115383 3.05997786,3.59154972 2.85153356,3.59154972 L2.45289805,3.59154972 L2.45289805,2.78542147 C2.72262485,2.62377689 2.9201173,2.35231455 3.02562614,2.18109459 C3.10306712,2.17020258 3.27751878,2.09216314 3.6264221,1.53086568 C3.82068285,1.21840869 3.97813818,0.901702624 3.97975403,0.898530776 L3.98250696,0.89170831 C4.01751698,0.784344235 3.99950328,0.670337233 3.93313385,0.578952093 L3.93313385,0.578952093 Z" id="Fill-1" fill="#404040" mask="url(#mask-3)"></path>
                                </g>
                                <path d="M2.2277447,1.25840989 L2.28154643,1.56978964 L1.99943146,1.42274754 L1.7173165,1.56978964 L1.77111823,1.25840989 L1.54340345,1.03835543 L1.85819444,0.992992011 L1.99943146,0.709261199 L2.14066848,0.992992011 L2.45545947,1.03835543 L2.2277447,1.25840989 Z M1.99943146,0.48100781 L1.79086747,0.899871331 L1.32346869,0.967258147 L1.66171938,1.29413807 L1.58200425,1.75507346 L1.99943146,1.5374727 L2.41685867,1.75507346 L2.33714354,1.29413807 L2.67539424,0.967258147 L2.20799545,0.899871331 L1.99943146,0.48100781 Z" id="Fill-4" fill="#404040"></path>
                            </g>
                            <circle id="Oval" stroke="#404040" stroke-width="0.61" cx="21.4057508" cy="36.341853" r="3.67412141"></circle>
                            <text id="™" fill="#40484F" fill-rule="nonzero" font-family="Helvetica" font-size="2.34" font-weight="normal">
                                <tspan x="93.6501597" y="48.0559105">™</tspan>
                            </text>
                            <path d="M42.3298853,63.60007 C40.9712787,62.6959604 39.6925902,61.6274673 38.4938197,60.3945906 C35.8565246,57.4356865 34.338082,53.490481 34.338082,49.4630837 C34.338082,48.3123988 34.4979181,47.0795221 34.7376722,45.9288371 L7.9651312,45.8466454 L7.64545907,45.8466454 C7.56554104,46.9973303 7.485623,48.230207 7.485623,49.4630837 C7.485623,62.2028098 12.9200492,74.3671933 22.2704591,82.6685632 C23.0696394,83.4082892 23.9487378,84.1480152 24.8278361,84.8055495 L24.9077542,84.8877413 L25.2274263,85.1343166 L25.2274263,85.1343166 C25.3872623,85.2987002 25.6270164,85.3808919 25.8667705,85.5452755 C26.5860328,86.120618 27.3852132,86.6137687 28.1044755,87.0247276 C29.5430001,87.60007 31.1413607,87.8466454 32.7397214,87.8466454 C40.3319345,87.8466454 46.485623,81.5178782 46.485623,73.7096591 L46.485623,73.7096591 C46.485623,69.7644536 44.9671804,65.490481 42.3298853,63.60007 Z" id="Path" fill="#808080" fill-rule="nonzero"></path>
                            <circle id="Oval" fill="#FFFFFF" fill-rule="nonzero" cx="33.0670927" cy="73.1629393" r="9.66453674"></circle>
                            <text id="Phase" fill="#939598" fill-rule="nonzero" font-family="OpenSans-Semibold, Open Sans" font-size="4.25" font-weight="500">
                                <tspan x="26.9408946" y="71.8594249">Phase</tspan>
                            </text>
                            <text id="1" fill="#939598" fill-rule="nonzero" font-family="OpenSans-Semibold, Open Sans" font-size="8.7" font-weight="500">
                                <tspan x="30.884984" y="79.9936102">1</tspan>
                            </text>
                        </g>
                    </g>
                </g>
            </g>
        </g>
    </g>
</svg>