<svg xmlns="http://www.w3.org/2000/svg" id="Layer_1" version="1.1" viewBox="0 0 72 72"><defs><style>.st0{fill:none;stroke:#350944;stroke-linecap:round;stroke-linejoin:round;stroke-width:2.5px}</style></defs><path d="M45.6 59.5H18.5c-.5 0-1-.2-1.4-.6s-.6-.9-.6-1.4v-35c0-.5.2-1 .6-1.4s.9-.6 1.4-.6h19.4l9.7 9.8v27.3c0 .5-.2 1-.6 1.4s-.9.6-1.4.6Z" class="st0"/><path d="M24.5 20.5v-6c0-.5.2-1 .6-1.4s.9-.6 1.4-.6h19.4l9.7 9.8v27.3c0 .5-.2 1-.6 1.4s-.9.6-1.4.6h-6.1M26.5 41.5h11M26.5 49.5h11" class="st0"/></svg>