<svg xmlns="http://www.w3.org/2000/svg" id="Layer_1" version="1.1" viewBox="0 0 72 72"><defs><style>.st0{stroke-linecap:round}.st0,.st1{fill:none;stroke:#350944;stroke-linejoin:round;stroke-width:2.5px}</style></defs><path d="M17.5 47.5v-26M54.5 21.5v26" class="st1"/><path d="M28.7 34.4V38M36 32.5V38M43.3 30.7V38M56.6 14.4H15.4c-1 0-1.9.8-1.9 1.9v3.4c0 1 .8 1.9 1.9 1.9h41.3c1 0 1.9-.8 1.9-1.9v-3.4c0-1-.8-1.9-1.9-1.9Z" class="st0"/><path d="M36 47.5v7" class="st1"/><path d="M36 61.7c2 0 3.6-1.6 3.6-3.6S38 54.5 36 54.5s-3.6 1.6-3.6 3.6 1.6 3.6 3.6 3.6M13.5 47.5h45" class="st0"/></svg>