<?xml version="1.0" encoding="UTF-8"?>
<svg width="102px" height="102px" viewBox="0 0 102 102" version="1.1" xmlns="http://www.w3.org/2000/svg" xmlns:xlink="http://www.w3.org/1999/xlink">
    <title>Phase 3</title>
    <defs>
        <linearGradient x1="-0.159931328%" y1="50.1315789%" x2="99.7076347%" y2="50.1315789%" id="linearGradient-1">
            <stop stop-color="#A4A4A4" offset="0%"></stop>
            <stop stop-color="#919191" offset="32%"></stop>
            <stop stop-color="#848484" offset="67%"></stop>
            <stop stop-color="#808080" offset="100%"></stop>
        </linearGradient>
        <polygon id="path-2" points="0 0 4 0 4 4.1375864 0 4.1375864"></polygon>
    </defs>
    <g id="Workspace" stroke="none" stroke-width="1" fill="none" fill-rule="evenodd">
        <g id="Prosci-PillarPage-CM-Desktop" transform="translate(-532.000000, -11310.000000)">
            <g id="Section-3---Change-Management-Process" transform="translate(0.000000, 8178.000000)">
                <g id="A-framework-for-organizational-change" transform="translate(380.000000, 2095.000000)">
                    <g id="Group" transform="translate(153.000000, 1038.000000)">
                        <circle id="Oval" stroke="#856534" stroke-width="1.5" fill="#FFFFFF" fill-rule="nonzero" cx="50" cy="50" r="50"></circle>
                        <path d="M91.9329073,40.3354633 C91.2140575,36.9009585 90.0159744,33.5463259 88.4984026,30.3514377 C81.3897764,15.9744409 66.5335463,6.23003195 50.399361,6.23003195 L49.6805112,6.23003195 L49.4408946,6.23003195 C42.3322684,6.15015974 36.4217252,11.5814696 35.8626198,18.6102236 C35.3035144,25.8785942 40.7348243,32.1884984 48.0031949,32.7476038 C48.0830671,32.7476038 48.1629393,32.7476038 48.2428115,32.7476038 C49.4408946,32.827476 50.2396166,32.7476038 51.6773163,32.9073482 C56.4696486,33.5463259 60.7028754,36.1821086 63.2587859,40.2555911 C64.1373802,41.6134185 64.85623,43.1309904 65.3354633,44.7284345 L65.4952077,45.3674121 C65.7348243,46.485623 65.8945687,47.6837061 65.8945687,48.8817891 C65.8945687,57.5079872 58.8658147,64.5367412 50.2396166,64.5367412 C47.7635783,64.5367412 45.2875399,63.8977636 43.0511182,62.7795527 L42.971246,62.9392971 L42.4121406,62.6198083 L42.4920128,62.4600639 C40.4952077,61.341853 38.7380192,59.8242812 37.3801917,57.9872204 C35.4632588,55.4313099 34.3450479,52.2364217 34.2651757,49.0415335 C34.2651757,48.8019169 34.2651757,48.4824281 34.2651757,48.2428115 C34.2651757,47.284345 34.4249201,46.3258786 34.5846645,45.4472843 L7.74760383,45.3674121 C7.66773163,46.485623 7.58760969,47.6837061 7.58760969,48.8817891 C7.50798722,72.4440895 26.5974441,91.5335463 50.1597444,91.6136693 C73.6421725,91.6932907 92.8115016,72.6837061 92.8115016,49.1214058 C92.8115016,46.1661342 92.571885,43.2108626 91.9329073,40.3354633 Z" id="Path" fill="#856534" fill-rule="nonzero"></path>
                        <path d="M92.971246,50.798722 C92.971246,49.0415335 92.8115016,47.284345 92.6517572,45.5271565 C92.6517572,45.5271565 91.5335463,35.7028754 78.7539936,35.7028754 C70.7667732,35.7028754 65.9744409,42.0926518 66.2939297,47.0447284 C66.5335463,50.5591054 65.8945687,47.7635783 65.8945687,48.9616613 C65.8945687,57.5878594 58.8658147,64.6166134 50.2396166,64.6166134 C47.7635783,64.6166134 45.2875399,64.057508 43.0511182,62.8594249 L42.4920128,62.5399361 C41.0543131,61.7412141 39.7763578,60.7827476 38.5782748,59.5846645 C35.8626198,56.7092652 34.2651757,52.9552716 34.1853035,48.9616613 C34.1853035,47.7635783 34.2651757,46.6453674 34.5846645,45.5271565 L8.14696486,45.4472843 L7.82747604,45.4472843 C7.74760383,46.5654952 7.66773163,47.7635783 7.66773163,48.9616613 C7.66773163,72.5239617 26.7571885,91.6932907 50.3194888,91.6932907 C73.2428115,91.6932907 92.0127796,73.7220447 92.971246,50.798722 L92.971246,50.798722 Z" id="Path" fill="#808080" fill-rule="nonzero"></path>
                        <circle id="Oval" fill="#FFFFFF" fill-rule="nonzero" cx="49.2811502" cy="19.8881789" r="9.66453674"></circle>
                        <text id="Phase" fill="#856534" fill-rule="nonzero" font-family="OpenSans-Semibold, Open Sans" font-size="4.25" font-weight="500">
                            <tspan x="43.1230032" y="18.3290735">Phase</tspan>
                        </text>
                        <text id="3" fill="#856534" fill-rule="nonzero" font-family="OpenSans-Semibold, Open Sans" font-size="8.7" font-weight="500">
                            <tspan x="47.3003195" y="26.1389776">3</tspan>
                        </text>
                        <path d="M79.1533546,38.3386581 C84.4249201,38.3386581 88.7380192,42.6517572 88.7380192,47.9233227 L88.7380192,47.9233227 L92.4920128,47.9233227 L92.6517572,47.9233227 C92.971246,40.3354633 86.5814696,34.5846645 79.2332268,34.5846645 C71.884984,34.5846645 65.8945687,40.4952077 65.8945687,47.8434505 C65.8945687,49.3610224 66.1341853,50.8785942 66.6932907,52.3162939 L69.0894569,52.7955272 L70.0479233,50.6389776 C68.5303514,45.6070288 71.4057508,40.2555911 76.4376997,38.7380192 C77.3162939,38.4984026 78.1948882,38.3386581 79.1533546,38.3386581 Z" id="Path" fill="url(#linearGradient-1)" fill-rule="nonzero"></path>
                        <path d="M66.9329073,53.115016 C67.4121406,54.2332268 67.971246,55.1916933 68.6900958,56.1501597 L71.3258786,56.3099042 L71.884984,54.1533546 C71.2460064,53.3546326 70.7667732,52.4760383 70.3674121,51.5974441 L69.4089457,53.6741214 L66.9329073,53.115016 Z" id="Path" fill="#A4A4A4" fill-rule="nonzero"></path>
                        <path d="M74.600639,58.7060703 L74.600639,56.4696486 C73.7220447,55.9904153 72.9233227,55.3514377 72.2044728,54.6325879 L71.6453674,56.8690096 L69.0095847,56.7092652 C69.9680511,57.827476 71.0063898,58.7859425 72.284345,59.5047923 L74.600639,58.7060703 Z" id="Path" fill="#A4A4A4" fill-rule="nonzero"></path>
                        <circle id="Oval" fill="#FFFFFF" fill-rule="nonzero" cx="79.1533546" cy="47.9233227" r="9.66453674"></circle>
                        <text id="Phase" fill="#939598" fill-rule="nonzero" font-family="OpenSans-Semibold, Open Sans" font-size="4.25" font-weight="500">
                            <tspan x="73.0990415" y="46.5319489">Phase</tspan>
                        </text>
                        <text id="2" fill="#939598" fill-rule="nonzero" font-family="OpenSans-Semibold, Open Sans" font-size="8.7" font-weight="500">
                            <tspan x="77.2763578" y="54.341853">2</tspan>
                        </text>
                        <path d="M34.5846645,43.1309904 L21.2460064,35.14377 C21.1661342,35.14377 21.1661342,35.0638978 21.1661342,34.9840256 L21.3258786,21.7252396 C21.6453674,21.7252396 21.884984,21.884984 22.0447284,22.1246006 L34.5846645,42.2523962 C34.7444089,42.4920128 34.7444089,42.8913738 34.5846645,43.1309904 Z" id="Path" fill="#999999" fill-rule="nonzero"></path>
                        <path d="M21.3258786,21.7252396 C21.0063898,21.7252396 20.686901,21.8051118 20.4472843,22.1246006 L18.2108626,25.7188498 L7.82747604,42.3322684 C7.74760383,42.571885 7.74760383,42.8913738 7.82747604,43.1309904 L21.3258786,35.14377 L21.3258786,35.14377 L21.3258786,21.7252396 L21.3258786,21.7252396 Z" id="Path" fill="#CCCCCC" fill-rule="nonzero"></path>
                        <path d="M34.5846645,43.1309904 L21.4057508,35.14377 C21.4057508,35.14377 21.3258786,35.14377 21.3258786,35.14377 L7.90734824,43.0511182 C8.06709265,43.4504792 8.38658147,43.6900958 8.78594249,43.6900958 L34.0255591,43.6102236 C34.2651757,43.5303514 34.5047923,43.370607 34.5846645,43.1309904 Z" id="Path" fill="#666666" fill-rule="nonzero"></path>
                        <circle id="Oval" fill="#FFFFFF" fill-rule="nonzero" opacity="0.9" cx="21.3258786" cy="35.7827476" r="3.67412141"></circle>
                        <circle id="Oval" stroke="#404040" stroke-width="0.61" cx="21.3258786" cy="35.7827476" r="3.67412141"></circle>
                        <text id="™" fill="#40484F" fill-rule="nonzero" font-family="Helvetica" font-size="2.34" font-weight="normal">
                            <tspan x="93.586262" y="47.4808307">™</tspan>
                        </text>
                        <path d="M42.2523962,62.5399361 C40.8945687,61.6613419 39.6166134,60.6230032 38.4984026,59.4249201 C35.8626198,56.5495208 34.3450479,52.715655 34.3450479,48.8019169 C34.3450479,47.6837061 34.5047923,46.485623 34.7444089,45.3674121 L7.90734824,45.2875399 L7.58785942,45.2875399 C7.50798722,46.4057508 7.42811502,47.6038339 7.42811502,48.8019169 C7.42811502,61.1821086 12.7795527,73.0031949 22.2044728,81.0702875 C23.0031949,81.7891374 23.8817891,82.5079872 24.7603834,83.1469649 L24.9201278,83.2268371 L25.2396166,83.4664537 L25.2396166,83.4664537 C25.399361,83.6261981 25.6389776,83.7060703 25.8785942,83.8658147 C26.5974441,84.4249201 27.3162939,84.9041534 28.115016,85.3035144 C29.5527157,85.8626198 31.1501597,86.1022364 32.7476038,86.1022364 C40.3354633,86.1022364 46.485623,80.0319489 46.485623,72.4440895 C46.485623,72.4440895 46.485623,72.4440895 46.485623,72.3642173 C46.485623,68.5303514 44.8881789,64.3769968 42.2523962,62.5399361 Z" id="Path" fill="#B3B3B3" fill-rule="nonzero"></path>
                        <circle id="Oval" fill="#FFFFFF" fill-rule="nonzero" cx="32.9872204" cy="72.6038339" r="9.66453674"></circle>
                        <text id="Phase" fill="#939598" fill-rule="nonzero" font-family="OpenSans-Semibold, Open Sans" font-size="4.25" font-weight="500">
                            <tspan x="26.8769968" y="71.284345">Phase</tspan>
                        </text>
                        <g id="Group-6" transform="translate(19.350000, 33.724060)">
                            <g id="Group-3">
                                <mask id="mask-3" fill="white">
                                    <use xlink:href="#path-2"></use>
                                </mask>
                                <g id="Clip-2"></g>
                                <path d="M3.88687274,0.856817978 C3.68890152,1.25539364 3.34077621,1.84721266 3.11180466,2.02717017 C3.31677788,1.61500943 3.4501152,1.10128969 3.49984739,0.536940064 L3.65107873,0.536940064 C3.73103324,0.536940064 3.80380622,0.574044705 3.85078548,0.638738442 C3.89710644,0.70247464 3.91015291,0.781830695 3.88687274,0.856817978 L3.88687274,0.856817978 Z M1.99944343,2.81743918 C1.42480026,2.81743918 1.05016308,2.12621563 0.980861187,1.98767168 C0.774032736,1.57413447 0.640874951,1.05347258 0.595810766,0.484036027 L0.580789371,0.101738532 L3.41809749,0.101738532 L3.40313594,0.482061103 C3.35795206,1.05353242 3.22479428,1.57419432 3.01802567,1.98767168 C2.97553488,2.07259343 2.58623538,2.81743918 1.99944343,2.81743918 L1.99944343,2.81743918 Z M2.35115952,3.59154972 L1.64659026,3.59154972 L1.64659026,2.84042012 C1.75437326,2.88913492 1.87215057,2.91917771 1.99944343,2.91917771 C2.12589844,2.91917771 2.24337652,2.88859631 2.35115952,2.83916335 L2.35115952,3.59154972 Z M3.1277836,3.96959813 L3.1277836,4.03584787 L0.869966187,4.03584787 L0.869966187,3.96959813 C0.869966187,3.81722972 0.993907657,3.69328825 1.14621622,3.69328825 L2.85153356,3.69328825 C3.00390197,3.69328825 3.1277836,3.81722972 3.1277836,3.96959813 L3.1277836,3.96959813 Z M0.113091355,0.856219516 C0.0898111853,0.781172387 0.102917502,0.701876178 0.149178611,0.63813998 C0.19621772,0.573446243 0.268990694,0.536341602 0.348945211,0.536341602 L0.498919776,0.536341602 C0.548233041,1.0987163 0.681330979,1.61231635 0.885945121,2.02477632 C0.656973578,1.8427242 0.310523953,1.25353841 0.113091355,0.856219516 L0.113091355,0.856219516 Z M3.93313385,0.578952093 C3.86682426,0.487626799 3.76394865,0.435201532 3.65107873,0.435201532 L3.50678955,0.435201532 L3.52396541,0 L0.474921452,0 L0.49209731,0.43460307 L0.348945211,0.43460307 C0.23601544,0.43460307 0.133199677,0.486968491 0.0668900925,0.578353631 C0.000520661899,0.669738771 -0.0174930429,0.783745773 0.0174571352,0.891109848 L0.0202699063,0.897932314 C0.0218259074,0.901164008 0.179281247,1.21781023 0.373541997,1.53026721 C0.718375774,2.0848619 0.892767587,2.16774889 0.971585026,2.18013705 C1.07870972,2.35680302 1.27464616,2.62724797 1.54485173,2.78739639 L1.54485173,3.59154972 L1.14621622,3.59154972 C0.937771926,3.59154972 0.768227655,3.76115383 0.768227655,3.96959813 L0.768227655,4.1375864 L3.22958197,4.1375864 L3.22958197,3.96959813 C3.22958197,3.76115383 3.05997786,3.59154972 2.85153356,3.59154972 L2.45289805,3.59154972 L2.45289805,2.78542147 C2.72262485,2.62377689 2.9201173,2.35231455 3.02562614,2.18109459 C3.10306712,2.17020258 3.27751878,2.09216314 3.6264221,1.53086568 C3.82068285,1.21840869 3.97813818,0.901702624 3.97975403,0.898530776 L3.98250696,0.89170831 C4.01751698,0.784344235 3.99950328,0.670337233 3.93313385,0.578952093 L3.93313385,0.578952093 Z" id="Fill-1" fill="#404040" mask="url(#mask-3)"></path>
                            </g>
                            <path d="M2.2277447,1.25840989 L2.28154643,1.56978964 L1.99943146,1.42274754 L1.7173165,1.56978964 L1.77111823,1.25840989 L1.54340345,1.03835543 L1.85819444,0.992992011 L1.99943146,0.709261199 L2.14066848,0.992992011 L2.45545947,1.03835543 L2.2277447,1.25840989 Z M1.99943146,0.48100781 L1.79086747,0.899871331 L1.32346869,0.967258147 L1.66171938,1.29413807 L1.58200425,1.75507346 L1.99943146,1.5374727 L2.41685867,1.75507346 L2.33714354,1.29413807 L2.67539424,0.967258147 L2.20799545,0.899871331 L1.99943146,0.48100781 Z" id="Fill-4" fill="#404040"></path>
                        </g>
                        <text id="1" fill="#939598" fill-rule="nonzero" font-family="OpenSans-Semibold, Open Sans" font-size="8.7" font-weight="500">
                            <tspan x="30.8210863" y="79.4185304">1</tspan>
                        </text>
                    </g>
                </g>
            </g>
        </g>
    </g>
</svg>