<svg width="100" height="100" viewBox="0 0 100 100" fill="none" xmlns="http://www.w3.org/2000/svg">
<path d="M20 25H35V57.5H20C19.337 57.5 18.7011 57.2366 18.2322 56.7678C17.7634 56.2989 17.5 55.663 17.5 55V27.5C17.5 26.837 17.7634 26.2011 18.2322 25.7322C18.7011 25.2634 19.337 25 20 25Z" stroke="#350944" stroke-width="1.6" stroke-linecap="round" stroke-linejoin="round"/>
<path d="M35 57.5L47.5 82.5C50.1522 82.5 52.6957 81.4464 54.5711 79.5711C56.4464 77.6957 57.5 75.1522 57.5 72.5V65H77.5C78.2093 64.9998 78.9104 64.8487 79.5567 64.5568C80.2031 64.2648 80.78 63.8387 81.2491 63.3067C81.7181 62.7747 82.0686 62.1489 82.2773 61.4711C82.486 60.7932 82.548 60.0787 82.4594 59.375L78.7094 29.375C78.5572 28.167 77.9694 27.056 77.0563 26.2505C76.1432 25.445 74.9676 25.0003 73.75 25H35" stroke="#350944" stroke-width="1.6" stroke-linecap="round" stroke-linejoin="round"/>
</svg>
